<?xml version="1.0" standalone="no"?>
<!DOCTYPE svg PUBLIC "-//W3C//DTD SVG 20010904//EN"
 "http://www.w3.org/TR/2001/REC-SVG-20010904/DTD/svg10.dtd">
<svg version="1.0" xmlns="http://www.w3.org/2000/svg"
 width="1280.000000pt" height="1260.000000pt" viewBox="0 0 1280.000000 1260.000000"
 preserveAspectRatio="xMidYMid meet">
<metadata>
Created by potrace 1.15, written by Peter Selinger 2001-2017
</metadata>
<g transform="translate(0.000000,1260.000000) scale(0.100000,-0.100000)"
fill="#000000" stroke="none">
<path d="M4540 12581 c-22 -43 -11 -97 40 -195 55 -104 60 -139 31 -195 -11
-20 -26 -74 -35 -120 -26 -138 -83 -238 -158 -277 -16 -8 -28 -21 -28 -30 0
-30 35 -81 106 -154 82 -85 99 -117 82 -155 -10 -23 -8 -29 25 -63 63 -64 42
-85 -31 -32 -43 33 -79 82 -91 127 -9 32 -32 41 -117 42 -50 1 -64 -3 -80 -20
-18 -20 -18 -21 1 -57 12 -23 46 -54 86 -82 37 -25 81 -62 98 -82 18 -20 67
-59 109 -86 128 -83 160 -134 143 -226 -19 -102 -55 -99 -175 15 -69 65 -87
78 -92 64 -6 -15 6 -68 28 -124 14 -37 -15 -59 -98 -74 -65 -13 -68 -14 -45
-27 14 -7 70 -16 126 -20 105 -8 175 -30 207 -66 42 -48 52 -93 53 -249 1
-106 8 -189 24 -282 13 -73 21 -139 17 -148 -9 -24 -61 7 -195 115 -95 76
-140 105 -277 171 -156 75 -293 129 -330 129 -32 0 -83 41 -103 83 -24 49 -47
152 -57 254 -8 85 -21 109 -53 98 -21 -6 -22 -10 -15 -86 3 -43 4 -79 0 -79
-3 0 -32 14 -65 31 -50 26 -62 29 -81 19 -21 -11 -20 -14 48 -83 119 -124 107
-158 -46 -122 -107 25 -217 73 -265 116 -50 44 -73 93 -82 179 -10 94 -40 177
-93 258 -26 40 -35 10 -17 -57 16 -57 16 -62 1 -86 -29 -44 -74 -65 -141 -65
-76 0 -159 21 -234 60 l-58 30 -96 -31 c-54 -17 -97 -35 -97 -40 0 -9 29 -14
120 -24 30 -3 75 -10 100 -15 25 -5 105 -16 178 -25 191 -22 269 -61 287 -144
9 -42 -4 -59 -71 -95 -32 -17 -60 -39 -62 -49 -3 -16 8 -17 145 -16 159 2 279
-18 363 -61 65 -33 55 -43 -71 -73 -173 -41 -255 -121 -202 -196 11 -16 16
-41 15 -75 -2 -57 8 -82 32 -73 25 10 73 83 103 158 l28 69 64 20 c101 32 195
43 331 38 116 -3 129 -6 179 -33 31 -17 74 -53 100 -85 85 -102 244 -251 311
-290 36 -22 132 -69 213 -104 160 -70 217 -106 217 -136 0 -23 -42 -47 -99
-56 -91 -15 -91 -53 2 -75 114 -27 157 -55 157 -104 0 -84 -90 -137 -135 -80
l-21 26 -45 -34 c-69 -53 -110 -71 -160 -70 -46 1 -47 0 -52 -37 -7 -57 -32
-85 -126 -147 -47 -31 -111 -79 -143 -107 -66 -60 -167 -122 -222 -137 -62
-17 -102 -4 -149 48 -23 26 -81 88 -129 138 -49 50 -88 96 -88 102 0 13 -24
23 -57 23 -34 0 -24 -22 16 -36 26 -8 37 -20 47 -50 7 -21 26 -50 42 -64 17
-14 55 -46 85 -72 31 -27 60 -48 67 -48 18 0 71 -93 68 -120 -4 -35 -35 -36
-156 -6 -134 34 -146 34 -99 -5 43 -36 45 -43 15 -63 -64 -41 -272 -39 -344 3
-82 48 -714 171 -714 139 0 -4 8 -8 18 -8 41 0 241 -52 288 -75 39 -19 67 -25
120 -25 205 0 334 -64 334 -165 0 -40 -12 -54 -120 -145 -105 -87 -152 -115
-226 -135 -82 -21 -123 -19 -169 10 -50 31 -67 32 -63 4 5 -35 47 -58 132 -70
62 -9 80 -16 83 -30 3 -11 7 -19 10 -19 12 0 107 72 186 142 131 116 150 128
218 144 34 8 107 39 163 68 154 82 254 106 276 66 16 -30 43 -24 100 23 28 23
79 63 111 90 97 76 149 61 149 -43 0 -29 6 -43 22 -54 12 -8 26 -12 31 -9 6 4
8 57 4 142 -8 166 -4 178 70 197 73 19 115 42 208 114 119 93 190 124 290 124
106 1 160 -28 199 -106 30 -60 32 -103 10 -179 -26 -86 -49 -125 -86 -140 -46
-19 -87 -16 -246 17 -119 24 -146 27 -206 18 -38 -5 -71 -14 -73 -20 -11 -34
238 -85 427 -88 122 -1 140 -4 184 -27 27 -13 63 -42 80 -63 28 -34 31 -45 31
-106 0 -85 -11 -98 -113 -141 -115 -48 -244 -77 -509 -114 -250 -36 -448 -74
-505 -98 -32 -14 -108 -88 -108 -106 0 -43 128 -39 269 8 89 30 99 31 369 41
284 10 363 18 490 44 221 47 332 20 332 -80 0 -60 -48 -83 -230 -110 -130 -19
-186 -37 -222 -71 -36 -34 -35 -49 4 -69 41 -21 86 -14 185 32 43 19 96 39
119 44 68 15 174 -26 115 -45 -27 -8 -127 -118 -151 -165 -23 -45 -26 -80 -6
-80 18 0 74 39 118 84 29 29 44 37 65 34 43 -5 56 -55 61 -243 l4 -160 31 -33
32 -33 6 -157 c6 -151 7 -160 42 -245 20 -48 52 -111 72 -138 27 -39 45 -83
75 -192 46 -170 65 -268 56 -292 -11 -30 -128 -16 -218 27 -121 58 -177 122
-162 183 4 18 -3 44 -25 88 -58 116 -95 142 -71 50 38 -153 33 -203 -23 -203
-57 0 -96 20 -205 103 -57 43 -123 87 -146 98 -32 14 -49 30 -68 66 -44 81
-70 180 -71 269 -1 74 2 87 35 155 52 106 112 328 94 347 -12 12 -43 -34 -70
-106 -17 -45 -44 -87 -80 -127 -61 -68 -74 -67 -96 9 -19 68 -45 104 -77 108
-44 5 -43 58 1 157 36 79 45 124 26 136 -23 15 -51 -10 -82 -73 -56 -113 -94
-115 -261 -13 -134 83 -168 94 -433 131 -129 19 -182 55 -208 143 -4 12 -16
17 -45 17 -29 0 -71 15 -148 55 -111 57 -123 61 -123 46 0 -25 67 -89 118
-112 68 -31 122 -79 122 -108 0 -35 -35 -45 -129 -36 -89 8 -97 8 -228 5 -61
-2 -104 5 -194 29 -64 17 -136 31 -161 31 -54 0 -110 -18 -105 -34 16 -53 315
-103 547 -91 113 6 137 4 250 -21 97 -20 167 -28 310 -34 212 -8 241 -16 381
-102 46 -28 113 -67 149 -87 89 -50 126 -103 195 -280 75 -192 82 -218 69
-239 -17 -26 -54 -26 -171 5 -84 21 -124 26 -183 23 -134 -6 -212 -4 -377 10
-172 14 -169 14 -369 -32 -60 -13 -107 0 -126 36 -7 11 -15 73 -18 136 -4 63
-12 126 -19 139 -13 24 -13 24 -150 18 -190 -8 -294 -40 -371 -112 -34 -33
-37 -33 -85 -24 -77 14 -118 34 -249 118 -67 42 -156 97 -200 122 -101 56
-159 108 -186 164 -19 40 -21 56 -16 123 17 195 18 212 7 212 -6 0 -11 -10
-11 -22 0 -13 -14 -72 -30 -133 -38 -140 -38 -177 0 -248 54 -101 33 -104 -61
-9 -72 74 -109 127 -128 183 -15 46 -91 169 -142 230 -40 48 -152 139 -171
139 -5 0 10 -23 34 -51 121 -142 142 -193 94 -225 -20 -12 -42 -14 -113 -10
-48 3 -171 9 -273 13 -206 9 -224 14 -262 79 l-21 35 -23 -22 c-30 -28 -30
-40 -1 -66 58 -53 126 -71 312 -83 151 -9 358 -39 443 -65 67 -20 118 -65 146
-129 28 -61 98 -129 169 -161 29 -13 106 -43 172 -66 147 -51 154 -54 286
-144 107 -73 197 -115 247 -115 39 1 99 31 162 82 74 60 111 78 163 78 68 0
101 -16 127 -61 50 -91 16 -196 -97 -303 -36 -33 -110 -105 -163 -158 -105
-106 -168 -144 -219 -133 -16 3 -48 24 -72 46 -111 103 -376 292 -442 315 -23
8 -53 22 -66 31 -28 18 -231 32 -231 16 0 -6 10 -13 22 -16 40 -11 14 -14 -52
-7 -86 10 -530 -1 -530 -12 0 -5 20 -18 45 -29 41 -18 63 -20 221 -17 l176 3
24 -28 c13 -15 24 -37 24 -48 0 -23 -9 -23 97 2 48 12 124 22 168 23 95 1 137
-19 173 -83 18 -32 37 -47 95 -75 40 -18 92 -41 117 -50 103 -36 135 -76 110
-135 -11 -29 -11 -29 -123 -33 -98 -5 -130 -11 -252 -51 -77 -24 -154 -48
-172 -51 -37 -8 -141 4 -358 44 -88 16 -201 34 -250 39 -54 7 -138 27 -208 50
-150 51 -198 58 -220 36 -10 -9 -17 -23 -17 -30 0 -17 -12 -20 -120 -35 -194
-26 -285 -42 -293 -49 -28 -28 111 -37 243 -16 323 50 308 48 445 37 92 -8
184 -25 315 -57 102 -26 221 -49 265 -52 123 -9 175 -47 175 -128 0 -80 -63
-129 -160 -123 -32 1 -61 0 -65 -3 -3 -4 8 -18 25 -33 24 -20 42 -26 79 -26
54 0 78 20 126 105 15 28 62 84 105 126 125 123 158 131 510 118 116 -5 150
10 280 114 47 38 102 78 122 90 20 12 40 32 43 44 3 13 19 39 37 58 41 47 82
46 115 -4 34 -51 32 -127 -7 -203 -16 -32 -30 -63 -30 -69 0 -37 40 -85 115
-139 85 -62 145 -121 145 -144 0 -9 25 -15 88 -19 48 -4 113 -10 145 -13 36
-4 57 -3 57 3 0 15 -90 56 -180 83 -153 46 -189 72 -210 150 -22 80 17 153 99
189 28 12 55 30 60 40 11 20 0 73 -20 97 -10 12 -9 18 4 31 15 15 65 17 474
17 347 1 468 -2 500 -12 36 -11 54 -27 114 -105 40 -51 99 -132 132 -182 33
-49 72 -104 86 -121 14 -17 34 -45 43 -63 16 -30 20 -31 81 -31 74 0 107 -22
107 -70 0 -60 -55 -82 -125 -51 -26 12 -58 21 -70 21 -13 0 -83 31 -157 68
-148 77 -219 99 -261 83 -59 -23 -24 -59 141 -145 62 -32 123 -72 137 -87 49
-59 192 -171 262 -206 64 -32 81 -36 150 -36 58 0 101 7 165 27 99 31 124 30
202 -12 69 -38 149 -131 201 -237 42 -84 45 -97 51 -195 5 -90 2 -131 -25
-290 -46 -269 -44 -260 -125 -415 -27 -51 -27 -54 -23 -219 3 -92 -7 -93 -166
-13 -74 37 -141 67 -149 67 -21 0 -276 112 -364 159 -76 41 -246 168 -338 252
-30 27 -71 74 -91 104 -61 92 -160 135 -314 135 -156 0 -283 -49 -404 -158
-106 -96 -131 -106 -226 -98 -95 9 -167 40 -211 93 -32 38 -146 236 -192 333
-11 25 -37 110 -56 190 -19 80 -39 158 -45 173 -16 46 -18 24 -2 -29 20 -66
19 -93 -10 -204 -38 -147 -36 -165 33 -252 33 -40 71 -94 85 -119 50 -85 33
-89 -78 -19 -75 47 -115 62 -115 41 0 -5 42 -47 93 -92 50 -46 121 -113 157
-149 36 -36 78 -74 93 -84 15 -9 33 -29 40 -43 9 -21 8 -27 -8 -39 -39 -29
-159 -11 -200 30 -14 14 -35 22 -63 23 -49 2 -121 36 -209 99 -66 47 -77 43
-42 -15 25 -42 13 -54 -45 -46 -58 9 -85 34 -146 135 -60 100 -94 131 -143
134 -29 1 -32 -2 -35 -31 -3 -28 7 -43 82 -122 47 -49 86 -96 86 -103 0 -25
-15 -36 -91 -71 -82 -37 -105 -57 -67 -57 38 0 170 40 215 65 39 21 45 22 98
10 31 -8 62 -19 70 -25 8 -6 18 -9 23 -7 4 3 14 2 21 -3 10 -6 3 -15 -29 -35
-23 -14 -39 -29 -36 -32 3 -3 39 0 80 7 72 12 75 12 198 -24 182 -53 263 -49
338 19 14 12 111 58 215 103 364 156 429 169 551 107 38 -19 102 -61 141 -94
40 -33 86 -62 103 -66 16 -4 41 -21 56 -38 l26 -31 -7 -124 c-8 -141 1 -167
57 -176 18 -3 78 -13 133 -22 116 -19 211 -52 267 -93 21 -16 65 -64 97 -107
31 -44 108 -142 170 -218 62 -77 121 -156 131 -177 11 -21 58 -79 105 -129 47
-50 97 -115 112 -143 29 -57 28 -41 53 -722 6 -154 16 -399 22 -545 15 -336
13 -423 -12 -573 -12 -67 -25 -174 -29 -237 -7 -93 -13 -125 -34 -166 -33 -65
-121 -145 -200 -183 -138 -66 -543 -164 -953 -231 -137 -22 -310 -57 -384 -76
-158 -42 -198 -52 -265 -66 -27 -5 -286 -14 -575 -19 -665 -11 -979 -23 -1103
-43 -55 -9 -160 -21 -235 -27 -76 -6 -222 -19 -327 -30 -104 -10 -237 -21
-295 -24 -58 -4 -181 -17 -275 -30 -93 -13 -217 -28 -275 -35 -58 -6 -159 -20
-225 -30 -140 -22 -232 -34 -370 -50 -55 -6 -115 -13 -133 -16 l-32 -5 0 -89
0 -90 6400 0 6400 0 0 259 0 259 -112 6 c-394 21 -564 27 -903 31 -209 2 -465
7 -570 10 -319 11 -1485 28 -1930 29 -231 1 -572 -5 -757 -12 -351 -14 -350
-14 -630 24 -147 21 -304 60 -354 89 -80 47 -223 165 -294 244 -58 64 -90 89
-153 122 -94 49 -152 98 -166 142 -17 51 -54 395 -71 657 -33 509 -41 720 -49
1252 -9 591 -7 669 25 795 52 209 136 334 291 436 94 62 153 117 256 239 l47
57 33 -18 c97 -57 199 -22 395 134 35 28 52 35 89 35 65 0 105 -23 182 -107
64 -69 70 -73 76 -52 15 46 7 128 -14 163 -26 41 -54 61 -110 76 -58 15 -137
-8 -186 -54 -45 -43 -83 -53 -124 -31 -40 20 -65 59 -65 101 0 43 21 65 81 84
44 14 50 21 112 123 84 137 201 258 201 207 0 -5 11 -17 24 -25 49 -32 87 7
164 167 l42 87 68 22 c42 14 104 24 165 27 120 5 169 -10 242 -78 89 -84 92
-85 330 -86 116 -1 219 2 231 7 35 12 80 64 127 146 81 140 151 191 278 200
81 7 124 -6 171 -51 60 -57 181 -70 261 -29 49 25 27 38 -74 43 -74 4 -102 10
-130 28 -92 57 -65 174 51 225 25 11 77 39 115 63 89 54 144 74 209 74 73 0
108 -25 150 -107 48 -96 120 -188 185 -236 31 -23 58 -45 59 -50 15 -32 169
-70 242 -60 79 12 72 40 -18 68 -31 10 -66 26 -77 35 -11 10 -62 41 -114 70
-112 63 -164 113 -186 181 -18 52 -22 110 -10 128 19 31 74 45 210 52 197 11
286 23 428 58 67 17 155 33 194 37 l71 7 30 96 c17 53 34 111 37 129 11 55
-19 39 -72 -38 -59 -86 -92 -104 -222 -120 -52 -7 -112 -18 -134 -26 -59 -21
-179 -18 -207 4 -17 14 -21 25 -17 43 10 40 117 155 187 202 36 24 98 67 139
95 45 32 85 52 102 52 l27 0 -5 123 c-6 153 19 411 42 437 21 23 81 40 142 40
51 0 83 20 83 51 0 28 36 78 80 111 25 19 92 65 150 103 126 83 232 185 192
185 -5 0 -34 -27 -65 -60 -39 -40 -65 -60 -81 -60 -29 0 -39 21 -25 56 5 15 7
29 4 32 -2 3 -67 -57 -142 -133 -230 -231 -222 -225 -317 -225 -77 0 -114 -14
-123 -48 -3 -13 -2 -59 2 -101 11 -102 8 -175 -11 -240 -38 -134 -81 -136
-113 -6 -6 22 -22 72 -35 110 -32 87 -34 172 -6 233 12 27 25 42 38 42 22 0
60 26 50 35 -3 4 -21 -1 -39 -10 -27 -14 -39 -15 -70 -6 -34 10 -99 70 -99 91
0 37 64 80 120 80 64 0 42 57 -34 88 -46 18 -75 72 -77 142 0 25 -4 56 -8 68
-6 23 -7 23 -22 5 -27 -31 -28 -49 -4 -99 40 -84 40 -111 5 -178 -37 -68 -37
-59 21 -276 21 -80 41 -182 45 -227 8 -91 10 -88 -71 -95 -47 -5 -45 -34 4
-42 22 -3 42 -10 46 -16 3 -5 -7 -32 -22 -60 l-28 -51 27 -23 c15 -13 32 -26
38 -28 7 -2 5 -20 -5 -56 -12 -40 -30 -67 -68 -105 -82 -82 -255 -225 -356
-295 l-54 -37 -131 0 -131 0 -98 -53 c-107 -57 -143 -63 -174 -29 -24 26 -63
111 -63 138 0 28 35 41 128 47 68 4 89 9 110 27 l26 22 -17 44 c-9 25 -35 68
-56 97 -51 67 -61 122 -33 184 24 54 70 94 125 108 29 8 54 24 79 53 21 23 34
43 29 45 -4 1 -50 -19 -101 -45 -70 -35 -106 -48 -150 -51 -54 -4 -59 -2 -88
29 -29 31 -30 35 -25 103 4 56 2 74 -9 84 -32 26 -68 -17 -68 -83 0 -19 20
-85 45 -147 25 -62 51 -142 57 -178 10 -59 9 -70 -8 -106 l-19 -39 -74 -2
c-128 -4 -145 -37 -96 -190 60 -187 9 -290 -189 -383 -78 -37 -113 -61 -156
-105 -194 -200 -372 -269 -516 -198 -68 33 -196 164 -214 218 -27 83 16 183
120 276 78 70 93 102 93 190 -1 68 -20 113 -50 117 -28 4 -55 -26 -93 -105
-17 -36 -61 -108 -99 -162 -38 -53 -82 -123 -99 -156 -56 -113 -153 -198 -284
-251 -34 -14 -72 -39 -86 -56 -28 -33 -113 -78 -149 -78 -13 0 -32 9 -44 21
-29 29 -20 65 40 164 101 166 158 345 109 345 -35 -1 -186 -262 -202 -350 -8
-42 -71 -191 -102 -240 -39 -63 -80 -93 -126 -96 -33 -1 -46 -7 -61 -30 -54
-78 -144 -154 -182 -154 -28 0 -35 17 -35 85 0 29 -8 70 -17 91 -22 52 -22
286 0 356 14 45 14 47 -3 38 -29 -16 -57 -57 -75 -111 -25 -74 -18 -208 15
-274 47 -96 27 -221 -49 -308 -36 -40 -147 -113 -226 -148 -52 -23 -293 -109
-306 -109 -4 0 -9 15 -11 33 -3 17 -17 72 -31 120 -27 90 -54 299 -43 340 9
37 176 207 292 298 59 46 161 135 227 197 155 148 295 264 379 314 57 34 81
42 150 49 104 12 191 39 292 92 84 45 282 189 383 280 98 88 100 88 520 248
104 40 94 69 -26 69 -94 0 -195 -17 -244 -42 -21 -10 -102 -45 -180 -77 -78
-33 -173 -73 -211 -91 -88 -40 -182 -64 -366 -90 -195 -29 -393 -81 -522 -137
-65 -29 -81 -26 -103 17 -14 28 -14 33 1 65 9 20 45 61 80 91 35 31 78 79 95
108 46 74 122 170 210 261 60 63 80 92 94 135 57 178 133 239 283 227 130 -11
326 -67 485 -139 110 -50 176 -68 247 -67 61 0 60 0 280 92 373 156 344 140
371 202 9 22 25 91 34 154 19 130 27 156 59 191 13 14 38 50 56 80 47 78 114
164 190 243 61 65 65 72 65 115 0 35 -12 73 -48 149 -48 101 -62 156 -74 279
-7 77 12 121 75 172 25 20 69 58 97 84 34 32 95 68 188 113 165 80 207 110
326 237 98 104 138 133 204 153 37 11 45 19 70 69 36 73 45 116 24 116 -15 0
-87 -50 -137 -95 -14 -12 -41 -25 -61 -29 -20 -4 -72 -28 -115 -55 -44 -27
-98 -61 -122 -76 -24 -15 -58 -29 -77 -32 -40 -6 -45 1 -75 112 -11 43 -26 87
-31 98 -10 18 -12 18 -27 3 -13 -13 -17 -39 -19 -119 -1 -56 -2 -112 -3 -124
0 -37 -50 -83 -140 -128 -78 -39 -140 -90 -140 -116 0 -23 -20 -5 -41 39 -24
50 -25 76 -20 437 3 164 38 540 56 595 9 25 42 88 75 140 33 52 68 120 77 150
45 154 117 383 140 443 22 59 23 72 13 97 -15 36 -29 38 -57 8 -48 -53 -98
-182 -118 -303 -24 -148 -74 -285 -105 -285 -6 0 -18 17 -27 38 -13 31 -14 49
-4 117 6 44 16 164 21 266 10 186 14 210 74 419 24 85 21 160 -9 201 -43 60
-95 139 -95 146 0 9 -33 32 -47 33 -24 0 -13 -40 37 -140 46 -91 50 -106 50
-170 0 -48 -12 -116 -39 -222 -22 -84 -44 -202 -51 -263 -6 -60 -18 -153 -26
-205 -10 -61 -14 -140 -12 -219 3 -106 1 -125 -14 -134 -26 -17 -89 7 -142 54
-77 68 -81 80 -76 264 7 283 5 317 -15 355 l-19 35 -7 -35 c-4 -19 -9 -161
-10 -316 -4 -331 -9 -312 121 -414 98 -76 112 -103 97 -181 -11 -55 -19 -60
-35 -24 -6 14 -17 25 -23 25 -9 0 -10 -30 -3 -122 14 -202 10 -282 -19 -401
-49 -199 -51 -223 -23 -360 43 -208 69 -478 63 -667 -5 -182 -17 -232 -67
-273 -59 -47 -196 -297 -230 -419 -25 -93 -62 -145 -129 -185 -97 -58 -169
-76 -284 -71 -122 5 -178 24 -309 101 -121 72 -154 100 -182 156 -43 85 -42
166 3 215 10 12 23 49 30 86 21 126 95 187 261 215 108 18 213 63 276 119 27
23 59 68 90 128 26 51 91 159 146 239 54 80 98 151 98 157 0 18 -50 34 -85 28
-17 -4 -47 -23 -67 -44 -43 -44 -112 -168 -133 -240 -28 -95 -110 -130 -186
-79 -48 32 -73 87 -71 162 1 77 27 146 86 230 50 69 96 159 96 187 0 40 -24
23 -94 -66 -42 -52 -96 -111 -121 -132 -76 -62 -102 -136 -81 -228 16 -67 35
-102 92 -167 100 -117 80 -145 -127 -185 -48 -9 -104 -27 -125 -40 -90 -54
-119 -66 -160 -67 -80 -1 -110 49 -99 167 12 128 6 221 -20 361 -23 120 -36
173 -79 325 -18 64 -21 178 -5 235 13 45 68 105 96 105 11 0 28 9 39 21 22 24
90 60 149 79 98 31 155 72 170 119 6 21 5 23 -11 17 -11 -5 -44 -10 -74 -13
-92 -9 -102 28 -36 124 20 30 43 83 56 131 28 104 75 183 148 249 l57 52 -1
63 c-1 35 -10 100 -19 145 -16 81 -18 122 -15 318 2 98 -8 164 -49 354 -12 52
-21 110 -21 129 0 43 -21 38 -33 -7 -5 -21 -4 -45 3 -67 16 -48 6 -94 -31
-140 -39 -49 -59 -87 -59 -112 0 -11 15 -42 34 -70 63 -91 69 -175 24 -347
-11 -44 -21 -114 -22 -155 -1 -89 -20 -104 -56 -45 -59 95 -110 50 -110 -100
0 -66 -50 -282 -101 -438 -37 -111 -72 -159 -146 -199 -67 -37 -119 -44 -163
-21 -19 10 -40 29 -46 43 -22 46 -86 333 -95 429 -24 237 -28 198 39 366 12
30 16 77 17 195 0 148 1 158 28 220 67 153 69 165 73 330 1 85 7 182 13 215
12 67 14 205 5 254 -9 44 -40 59 -67 33 -16 -17 -22 -42 -30 -134 -5 -62 -13
-123 -18 -135 -13 -34 -43 -28 -76 13 -70 89 -108 118 -238 180 -135 64 -155
67 -155 20 0 -31 31 -56 128 -106 87 -45 122 -78 122 -115 0 -31 30 -66 103
-118 119 -85 122 -111 16 -123 -74 -8 -75 -20 -9 -98 56 -65 72 -90 63 -100
-13 -13 -81 -5 -170 21 -137 40 -145 22 -46 -108 28 -35 57 -78 66 -94 23 -45
30 -149 17 -245 -7 -47 -19 -142 -29 -212 -19 -144 -32 -170 -76 -150 -14 6
-100 83 -191 169 -165 157 -247 223 -334 268 -25 13 -68 47 -97 77 -81 84
-191 238 -209 293 -36 108 -99 205 -134 205 -20 0 -32 -43 -25 -87 12 -81 14
-113 8 -113 -5 0 -33 21 -63 46 -66 54 -140 94 -175 94 -58 0 -85 -40 -47 -72
9 -8 55 -35 101 -59 47 -24 99 -59 115 -77 17 -18 44 -45 61 -60 117 -107 185
-177 231 -239 57 -76 64 -80 264 -171 36 -16 79 -44 95 -62 17 -18 80 -85 141
-149 120 -126 142 -155 167 -217 8 -22 54 -130 102 -239 70 -159 99 -215 151
-283 71 -92 106 -155 123 -217 17 -65 40 -374 46 -610 2 -121 9 -247 14 -280
5 -33 17 -107 25 -165 9 -58 22 -121 28 -140 18 -50 14 -206 -5 -252 -27 -65
-38 -54 -88 89 -125 353 -124 351 -118 470 2 41 -42 97 -116 148 -74 51 -84
37 -34 -45 83 -139 157 -447 130 -547 -12 -46 -44 -75 -70 -66 -43 15 -83 76
-95 146 -4 20 -18 59 -30 85 -13 26 -45 99 -71 162 -25 63 -56 131 -67 150
-22 38 -53 139 -88 290 -12 52 -38 147 -58 210 -32 105 -40 119 -86 165 -38
38 -72 59 -131 84 -44 17 -89 36 -101 41 -29 12 -105 116 -160 219 -26 47 -59
106 -73 131 -46 76 -52 108 -61 290 -6 123 -14 188 -26 220 -9 25 -18 77 -19
116 -2 80 -8 94 -36 94 -24 0 -79 -51 -79 -73 0 -8 18 -32 39 -54 65 -64 71
-113 44 -321 -16 -123 -19 -133 -40 -138 -39 -10 -79 15 -123 77 -23 32 -45
59 -50 59 -11 0 -30 -65 -30 -102 0 -44 -26 -61 -84 -55 -48 4 -54 8 -136 95
-67 72 -93 93 -125 101 -86 22 -114 65 -145 227 -12 60 -33 134 -47 164 -56
122 -65 194 -68 505 -1 260 -6 305 -42 388 -31 73 -78 29 -55 -51 24 -85 34
-196 30 -332 -3 -111 -8 -144 -20 -157 -9 -9 -23 -13 -31 -10 -8 3 -38 53 -66
110 -51 105 -66 122 -91 107 -17 -10 11 -81 81 -206 75 -132 139 -270 139
-299 0 -14 6 -38 14 -53 29 -57 29 -71 2 -82 -33 -12 -33 -39 -2 -88 14 -20
43 -80 66 -132 56 -131 97 -184 168 -218 31 -15 86 -52 122 -80 108 -87 154
-104 301 -111 115 -6 129 -8 167 -34 95 -62 131 -162 76 -206 -36 -28 -106
-27 -222 3 -51 13 -94 20 -97 16 -5 -9 85 -90 121 -108 40 -21 118 -23 204 -7
47 9 111 18 142 22 54 5 58 4 67 -19 5 -13 66 -95 135 -183 107 -136 126 -165
126 -195 0 -60 19 -107 77 -191 70 -103 83 -135 83 -203 0 -122 24 -200 134
-426 131 -270 147 -334 107 -413 -10 -20 -42 -58 -71 -84 -42 -38 -62 -69
-112 -172 -33 -69 -75 -146 -93 -171 -18 -25 -62 -100 -98 -168 -37 -67 -95
-158 -130 -201 -62 -76 -166 -227 -221 -323 -53 -91 -169 -198 -216 -198 -23
0 -40 42 -40 99 0 44 4 52 38 81 20 17 59 46 87 63 70 45 95 86 95 156 0 73
32 140 109 234 32 40 69 92 81 116 12 24 49 78 82 120 75 93 112 171 144 298
51 206 50 369 -1 482 -46 99 -56 162 -64 400 -9 242 -21 306 -58 299 -27 -5
-63 -87 -70 -160 -4 -52 -1 -81 16 -138 19 -62 23 -101 26 -269 2 -157 6 -205
20 -239 35 -86 10 -175 -85 -303 -41 -57 -52 -66 -79 -66 -61 0 -82 -35 -113
-193 -20 -99 -23 -98 -212 85 -92 89 -115 167 -76 253 14 32 17 49 10 67 -11
30 -21 31 -43 7 -37 -41 -67 -126 -67 -192 l0 -64 129 -126 c107 -103 131
-131 136 -162 9 -48 -8 -99 -45 -132 -17 -14 -30 -31 -30 -36 0 -6 -20 -10
-44 -10 -59 0 -76 -23 -76 -103 0 -63 -10 -74 -55 -63 -18 5 -26 15 -31 44
-22 127 -71 316 -143 561 -69 233 -84 442 -43 581 12 41 25 107 28 145 6 70 2
90 -41 205 -22 59 -22 180 0 338 l17 123 -27 40 c-51 78 -73 41 -100 -162 -8
-68 -18 -132 -21 -142 -3 -9 -24 -27 -47 -38 -95 -48 -100 -76 -22 -120 79
-44 115 -83 115 -122 -1 -48 -16 -117 -29 -130 -17 -17 -56 27 -112 125 -34
61 -52 84 -69 86 -46 7 -46 -27 0 -198 36 -137 38 -144 50 -285 22 -257 56
-497 115 -825 l6 -35 -34 37 c-38 43 -125 195 -161 283 -15 39 -28 100 -35
175 -15 152 -38 282 -61 351 -26 77 -36 121 -59 281 -28 185 -50 279 -71 303
-65 74 -72 229 -19 402 19 60 19 66 4 89 -19 29 -30 25 -38 -14 -3 -15 -14
-39 -25 -52 l-19 -24 -18 28 c-10 15 -28 67 -40 115 -13 48 -31 101 -41 117
-29 43 -24 144 14 289 18 66 32 140 32 165 0 66 -23 164 -74 313 -25 72 -49
150 -55 172 -6 22 -34 81 -64 130 -66 113 -85 160 -93 232 -7 59 -37 133 -54
133 -37 0 -16 -236 30 -330 9 -19 24 -56 32 -82 l15 -47 -38 -26 c-59 -38 -50
-54 41 -75 86 -20 90 -23 90 -83 0 -29 14 -106 30 -172 17 -66 30 -129 30
-140 0 -33 -28 -64 -64 -70 -73 -14 -137 52 -182 188 -14 45 -35 98 -45 117
-17 32 -61 169 -95 298 -8 29 -16 85 -20 125 -3 40 -11 108 -19 152 -8 44 -19
143 -26 220 -6 77 -24 217 -40 312 -42 251 -45 295 -25 345 12 32 28 50 63 72
196 121 333 229 333 262 0 16 -31 34 -57 34 -9 0 -52 -36 -94 -80 -42 -44 -84
-80 -93 -80 -22 0 -45 39 -54 91 -4 24 -12 42 -17 40 -6 -2 -20 -44 -32 -95
-22 -87 -45 -135 -71 -144 -6 -2 -23 8 -37 22 -21 21 -24 30 -17 58 4 18 7 76
7 128 0 158 -41 190 -126 100 l-47 -50 -26 22 c-62 54 -40 136 80 299 76 104
124 205 144 302 18 90 -3 144 -28 73 -7 -19 -20 -37 -30 -41 -46 -18 -130 159
-119 251 4 41 3 44 -19 44 -13 0 -28 -9 -34 -19z"/>
</g>
</svg>
